<?xml version="1.0" encoding="utf-8"?>
<!-- Generator: Adobe Illustrator 18.0.0, SVG Export Plug-In . SVG Version: 6.00 Build 0)  -->
<!DOCTYPE svg PUBLIC "-//W3C//DTD SVG 1.1//EN" "http://www.w3.org/Graphics/SVG/1.1/DTD/svg11.dtd">
<svg version="1.1" id="Слой_1" xmlns="http://www.w3.org/2000/svg" xmlns:xlink="http://www.w3.org/1999/xlink" x="0px" y="0px"
	 viewBox="42.5 0 636.8 1024" enable-background="new 42.5 0 636.8 1024" xml:space="preserve">
<path fill="#000000"      d="
	M667,1001.5c-6-6-22.4-11.2-22.4-11.2c-12.9-14.6-37.9-26.7-37.9-26.7c-11.2-3.4-19.8-18.1-19.8-18.1
	c-16.3-150.6-34.4-170.4-34.4-170.4c-6-6-14.6-29-14.6-29c0.9-23.2-12.9-49.1-12.9-49.1h5.2c-13.8-50.4-71.4-155.8-71.4-155.8
	c2.6-9.5-18.1-63.7-18.1-63.7c3.4-10.3-12.9-58.6-12.9-58.6c0.9-5.2-1.9-19-1.9-19c11.2-11.2,1.1-79.2,1.1-79.2
	c10.3,9.5,55.1,17.2,55.1,17.2c-21.5,127.3,0.9,177.2,0.9,177.2l8.6-1.7c125.6-50.8,166.1-218.5,166.1-218.5
	c-62.8-58.5-148.8-66.2-148.8-66.2c-7.7,11.2-14.2,52-14.2,52c-3.4-5.2-27.1-9.9-27.1-9.9c-12-2.6-29.3-22.4-29.3-22.4
	c-12.9-18.9-48.4-27.5-48.4-27.5l20-50.8l5.2-86c-4.3-23.2-62.8-23.2-62.8-23.2s13.8-37.9-12-46.5c0,0,8,10.7,3.6,13.3
	c0,0-14.8-32.3-51.7-26.2c0,0,14.6,1.7,16.3,8.6c0,0-61.1-21.5-68,27.5l12.9-6.8l-18.9,22c0,0-6,46.8,32.7,52L266,89.5l6,15.5
	c0,0,27.5,2.6,30.1-22.4c0,0,3.4-28.2-18.9-29.6c0,0-12-0.5-12.9,13.2c0,0-6.9-0.9-0.9-13.2c0,0,6.9-10,16.3-4.8
	c0,0,14.6-23.2,25-20.6c0,0-16.8,13-20.2,23.3c0,0,19.4-0.1,22.8,8.5c0,0,18.1-10.3,24.1-1.7c0,0-30.1-2.6-27.5,28.4
	c0,0,12-30.1,29.3-18.1c0,0-36.8,10.3-31,65.4c0,0,14.6-54.2,32.7-57.6l-24.9,49c0,0-25.8,42.2-27.6,60.2l8.6,3.4
	c0,0-6.7,18.5-29.9,26.3c0,0-23.5,5.6-50.1,26.2c0,0-42.2,17.2-43,76.6c0,0-15.5,34.4-16.3,50.8c0,0-30.1,26.7-30.1,68.8
	c0,0-13.8,81.7-21.5,89.4c0,0,5.4,8,0,6.8c-2.8-0.6-6.7-0.4-10.9,0c-3.3-3.1-10-6.6-18.3,3.6c-10.3,2.6-6,13.8-6,13.8
	c-2.6,12.9,2.6,15.5,2.6,15.5c-1.7,9.5,8.6,9.5,8.6,9.5l6,5.2l-26.7,2.6c-15.5,8.6,0,14.6,0,14.6l34.2-2.7l100,214.2
	c0,20.9,4.3,38.9,4.3,38.9c-1.7,7.7,3.4,49.9,3.4,49.9c1.7,31-7.7,51.6-7.7,51.6c-3.4,4.3-23.2,28.4-23.2,28.4
	c-21.5,0-20.6,11.2-20.6,11.2c2.6,15.5,31,10.3,31,10.3c32.7,8.6,35.3-9.5,35.3-9.5c-0.9-6,3.4-12,3.4-12
	c19.8,0.9,15.5-11.2,15.5-11.2c-3.4-11.2,0-16.3,0-16.3c6-4.3,1.7-18.1,1.7-18.1c-0.8-5.8,0.9-15.6,3-24.7l41.6,89.2l-39-99.8
	c1.6-6.1,3-10.4,3-10.4l12.9-42.2c22.4,9.5,43.9-4.3,43.9-4.3c12.9,3.4,14.6-0.9,14.6-0.9l4.3-12c6.9-19.8,31.8-9.5,31.8-9.5
	c11.2,10.3,47.3-0.9,47.3-0.9c45.6-12,78.3,11.2,78.3,11.2c-13.8-24.1-7.7-78.3-7.7-78.3c0,7.7,18.1,25.8,18.1,25.8l0.9,16.3
	c-5.2,50.8,14.6,68.8,14.6,68.8c4.3,4.3,15.5,23.2,15.5,23.2c1.7,5.2,25.8,61.9,25.8,61.9c6,19.8,0,35.3,0,35.3
	c-5.2,24.1,31.8,18.5,31.8,18.5c12-1.7,34.6,4.7,34.6,4.7c23.9,18.9,47.1,14.6,47.1,14.6C680.7,1019.6,667,1001.5,667,1001.5z
	 M267.7,461.2c-18.1,31.8-26.7,118.7-26.7,118.7c-14.6,42.2-14.6,130.8-14.6,130.8c-4.3,33.6-18.9,51.6-18.9,51.6
	c-4.1,5.6-6.9,12.1-8.8,19.1L125,592.9l23.1-1.8c10.3-2.6,2.6-12,2.6-12l-21.5-0.9c6.9-4.3,4.3-12,4.3-12c0-4.3,3.4-12.9,3.4-12.9
	c6,4.3,7.7-0.9,7.7-0.9c2.6-23.2,26.7-74,26.7-74c24.1-28.4,31.8-78.3,31.8-78.3l25.8-43.9c6,24.1,40.4,62.8,40.4,62.8l1.7,23.2
	L267.7,461.2z"/>
</svg>
